<?xml version="1.0" encoding="UTF-8" standalone="no"?>
<!DOCTYPE svg PUBLIC "-//W3C//DTD SVG 1.1//EN"
 "http://www.w3.org/Graphics/SVG/1.1/DTD/svg11.dtd">
<!-- Generated by graphviz version 2.38.0 (20140413.2041)
 -->
<!-- Title: App Pages: 1 -->
<svg width="415pt" height="332pt"
 viewBox="0.00 0.00 414.69 332.00" xmlns="http://www.w3.org/2000/svg" xmlns:xlink="http://www.w3.org/1999/xlink">
<g id="graph0" class="graph" transform="scale(1 1) rotate(0) translate(4 328)">
<title>App</title>
<polygon fill="white" stroke="none" points="-4,4 -4,-328 410.69,-328 410.69,4 -4,4"/>
<!-- Routing -->
<g id="node1" class="node"><title>Routing</title>
<ellipse fill="none" stroke="black" cx="112.146" cy="-306" rx="38.9931" ry="18"/>
<text text-anchor="middle" x="112.146" y="-302.3" font-family="Times,serif" font-size="14.00">Routing</text>
</g>
<!-- NotFound -->
<g id="node2" class="node"><title>NotFound</title>
<ellipse fill="none" stroke="black" cx="46.1459" cy="-234" rx="46.2923" ry="18"/>
<text text-anchor="middle" x="46.1459" y="-230.3" font-family="Times,serif" font-size="14.00">NotFound</text>
</g>
<!-- Routing&#45;&gt;NotFound -->
<g id="edge1" class="edge"><title>Routing&#45;&gt;NotFound</title>
<path fill="none" stroke="black" d="M97.1695,-289.116C88.6834,-280.116 77.9036,-268.682 68.4408,-258.646"/>
<polygon fill="black" stroke="black" points="70.9278,-256.182 61.5211,-251.307 65.8347,-260.984 70.9278,-256.182"/>
</g>
<!-- InitializeSession -->
<g id="node3" class="node"><title>InitializeSession</title>
<ellipse fill="none" stroke="black" cx="179.146" cy="-234" rx="68.7879" ry="18"/>
<text text-anchor="middle" x="179.146" y="-230.3" font-family="Times,serif" font-size="14.00">InitializeSession</text>
</g>
<!-- Routing&#45;&gt;InitializeSession -->
<g id="edge2" class="edge"><title>Routing&#45;&gt;InitializeSession</title>
<path fill="none" stroke="black" d="M127.349,-289.116C135.841,-280.244 146.595,-269.009 156.101,-259.077"/>
<polygon fill="black" stroke="black" points="158.682,-261.442 163.068,-251.797 153.625,-256.601 158.682,-261.442"/>
</g>
<!-- IsCoyote -->
<g id="node4" class="node"><title>IsCoyote</title>
<ellipse fill="none" stroke="black" cx="179.146" cy="-162" rx="42.4939" ry="18"/>
<text text-anchor="middle" x="179.146" y="-158.3" font-family="Times,serif" font-size="14.00">IsCoyote</text>
</g>
<!-- InitializeSession&#45;&gt;IsCoyote -->
<g id="edge3" class="edge"><title>InitializeSession&#45;&gt;IsCoyote</title>
<path fill="none" stroke="black" d="M179.146,-215.697C179.146,-207.983 179.146,-198.712 179.146,-190.112"/>
<polygon fill="black" stroke="black" points="182.646,-190.104 179.146,-180.104 175.646,-190.104 182.646,-190.104"/>
</g>
<!-- NotAllowed -->
<g id="node5" class="node"><title>NotAllowed</title>
<ellipse fill="none" stroke="black" cx="107.146" cy="-90" rx="53.8905" ry="18"/>
<text text-anchor="middle" x="107.146" y="-86.3" font-family="Times,serif" font-size="14.00">NotAllowed</text>
</g>
<!-- IsCoyote&#45;&gt;NotAllowed -->
<g id="edge4" class="edge"><title>IsCoyote&#45;&gt;NotAllowed</title>
<path fill="none" stroke="black" d="M162.808,-145.116C153.46,-136.027 141.56,-124.458 131.164,-114.351"/>
<polygon fill="black" stroke="black" points="133.529,-111.768 123.919,-107.307 128.649,-116.787 133.529,-111.768"/>
</g>
<!-- ValidatePurchase -->
<g id="node6" class="node"><title>ValidatePurchase</title>
<ellipse fill="none" stroke="black" cx="251.146" cy="-90" rx="72.2875" ry="18"/>
<text text-anchor="middle" x="251.146" y="-86.3" font-family="Times,serif" font-size="14.00">ValidatePurchase</text>
</g>
<!-- IsCoyote&#45;&gt;ValidatePurchase -->
<g id="edge5" class="edge"><title>IsCoyote&#45;&gt;ValidatePurchase</title>
<path fill="none" stroke="black" d="M195.484,-145.116C204.765,-136.092 216.562,-124.623 226.904,-114.568"/>
<polygon fill="black" stroke="black" points="229.391,-117.032 234.121,-107.552 224.512,-112.013 229.391,-117.032"/>
</g>
<!-- FormValidationError -->
<g id="node7" class="node"><title>FormValidationError</title>
<ellipse fill="none" stroke="black" cx="164.146" cy="-18" rx="85.5853" ry="18"/>
<text text-anchor="middle" x="164.146" y="-14.3" font-family="Times,serif" font-size="14.00">FormValidationError</text>
</g>
<!-- ValidatePurchase&#45;&gt;FormValidationError -->
<g id="edge6" class="edge"><title>ValidatePurchase&#45;&gt;FormValidationError</title>
<path fill="none" stroke="black" d="M230.528,-72.411C219.234,-63.3238 205.063,-51.9219 192.718,-41.9888"/>
<polygon fill="black" stroke="black" points="194.902,-39.2544 184.917,-35.7125 190.514,-44.7083 194.902,-39.2544"/>
</g>
<!-- PurchaseProduct -->
<g id="node8" class="node"><title>PurchaseProduct</title>
<ellipse fill="none" stroke="black" cx="337.146" cy="-18" rx="69.5877" ry="18"/>
<text text-anchor="middle" x="337.146" y="-14.3" font-family="Times,serif" font-size="14.00">PurchaseProduct</text>
</g>
<!-- ValidatePurchase&#45;&gt;PurchaseProduct -->
<g id="edge7" class="edge"><title>ValidatePurchase&#45;&gt;PurchaseProduct</title>
<path fill="none" stroke="black" d="M271.527,-72.411C282.665,-63.3446 296.635,-51.9742 308.819,-42.0572"/>
<polygon fill="black" stroke="black" points="311.365,-44.4972 316.911,-35.4699 306.946,-39.0682 311.365,-44.4972"/>
</g>
</g>
</svg>
