<?xml version="1.0" encoding="UTF-8" standalone="no"?>
<!DOCTYPE svg PUBLIC "-//W3C//DTD SVG 1.1//EN"
 "http://www.w3.org/Graphics/SVG/1.1/DTD/svg11.dtd">
<!-- Generated by graphviz version 2.38.0 (20140413.2041)
 -->
<!-- Title: App Pages: 1 -->
<svg width="388pt" height="260pt"
 viewBox="0.00 0.00 387.69 260.00" xmlns="http://www.w3.org/2000/svg" xmlns:xlink="http://www.w3.org/1999/xlink">
<g id="graph0" class="graph" transform="scale(1 1) rotate(0) translate(4 256)">
<title>App</title>
<polygon fill="white" stroke="none" points="-4,4 -4,-256 383.69,-256 383.69,4 -4,4"/>
<!-- Routing -->
<g id="node1" class="node"><title>Routing</title>
<ellipse fill="none" stroke="black" cx="99.1459" cy="-234" rx="38.9931" ry="18"/>
<text text-anchor="middle" x="99.1459" y="-230.3" font-family="Times,serif" font-size="14.00">Routing</text>
</g>
<!-- NotFound -->
<g id="node2" class="node"><title>NotFound</title>
<ellipse fill="none" stroke="black" cx="46.1459" cy="-162" rx="46.2923" ry="18"/>
<text text-anchor="middle" x="46.1459" y="-158.3" font-family="Times,serif" font-size="14.00">NotFound</text>
</g>
<!-- Routing&#45;&gt;NotFound -->
<g id="edge1" class="edge"><title>Routing&#45;&gt;NotFound</title>
<path fill="none" stroke="black" d="M86.8534,-216.765C80.3256,-208.143 72.1649,-197.365 64.8676,-187.727"/>
<polygon fill="black" stroke="black" points="67.5666,-185.493 58.7398,-179.633 61.9858,-189.719 67.5666,-185.493"/>
</g>
<!-- IsCoyote -->
<g id="node3" class="node"><title>IsCoyote</title>
<ellipse fill="none" stroke="black" cx="152.146" cy="-162" rx="42.4939" ry="18"/>
<text text-anchor="middle" x="152.146" y="-158.3" font-family="Times,serif" font-size="14.00">IsCoyote</text>
</g>
<!-- Routing&#45;&gt;IsCoyote -->
<g id="edge2" class="edge"><title>Routing&#45;&gt;IsCoyote</title>
<path fill="none" stroke="black" d="M111.438,-216.765C117.966,-208.143 126.127,-197.365 133.424,-187.727"/>
<polygon fill="black" stroke="black" points="136.306,-189.719 139.552,-179.633 130.725,-185.493 136.306,-189.719"/>
</g>
<!-- NotAllowed -->
<g id="node4" class="node"><title>NotAllowed</title>
<ellipse fill="none" stroke="black" cx="80.1459" cy="-90" rx="53.8905" ry="18"/>
<text text-anchor="middle" x="80.1459" y="-86.3" font-family="Times,serif" font-size="14.00">NotAllowed</text>
</g>
<!-- IsCoyote&#45;&gt;NotAllowed -->
<g id="edge3" class="edge"><title>IsCoyote&#45;&gt;NotAllowed</title>
<path fill="none" stroke="black" d="M135.808,-145.116C126.46,-136.027 114.56,-124.458 104.164,-114.351"/>
<polygon fill="black" stroke="black" points="106.529,-111.768 96.9188,-107.307 101.649,-116.787 106.529,-111.768"/>
</g>
<!-- ValidatePurchase -->
<g id="node5" class="node"><title>ValidatePurchase</title>
<ellipse fill="none" stroke="black" cx="224.146" cy="-90" rx="72.2875" ry="18"/>
<text text-anchor="middle" x="224.146" y="-86.3" font-family="Times,serif" font-size="14.00">ValidatePurchase</text>
</g>
<!-- IsCoyote&#45;&gt;ValidatePurchase -->
<g id="edge4" class="edge"><title>IsCoyote&#45;&gt;ValidatePurchase</title>
<path fill="none" stroke="black" d="M168.484,-145.116C177.765,-136.092 189.562,-124.623 199.904,-114.568"/>
<polygon fill="black" stroke="black" points="202.391,-117.032 207.121,-107.552 197.512,-112.013 202.391,-117.032"/>
</g>
<!-- FormValidationError -->
<g id="node6" class="node"><title>FormValidationError</title>
<ellipse fill="none" stroke="black" cx="137.146" cy="-18" rx="85.5853" ry="18"/>
<text text-anchor="middle" x="137.146" y="-14.3" font-family="Times,serif" font-size="14.00">FormValidationError</text>
</g>
<!-- ValidatePurchase&#45;&gt;FormValidationError -->
<g id="edge5" class="edge"><title>ValidatePurchase&#45;&gt;FormValidationError</title>
<path fill="none" stroke="black" d="M203.528,-72.411C192.234,-63.3238 178.063,-51.9219 165.718,-41.9888"/>
<polygon fill="black" stroke="black" points="167.902,-39.2544 157.917,-35.7125 163.514,-44.7083 167.902,-39.2544"/>
</g>
<!-- PurchaseProduct -->
<g id="node7" class="node"><title>PurchaseProduct</title>
<ellipse fill="none" stroke="black" cx="310.146" cy="-18" rx="69.5877" ry="18"/>
<text text-anchor="middle" x="310.146" y="-14.3" font-family="Times,serif" font-size="14.00">PurchaseProduct</text>
</g>
<!-- ValidatePurchase&#45;&gt;PurchaseProduct -->
<g id="edge6" class="edge"><title>ValidatePurchase&#45;&gt;PurchaseProduct</title>
<path fill="none" stroke="black" d="M244.527,-72.411C255.665,-63.3446 269.635,-51.9742 281.819,-42.0572"/>
<polygon fill="black" stroke="black" points="284.365,-44.4972 289.911,-35.4699 279.946,-39.0682 284.365,-44.4972"/>
</g>
</g>
</svg>
