<?xml version="1.0" encoding="UTF-8" standalone="no"?>
<!DOCTYPE svg PUBLIC "-//W3C//DTD SVG 1.1//EN"
 "http://www.w3.org/Graphics/SVG/1.1/DTD/svg11.dtd">
<!-- Generated by graphviz version 2.38.0 (20140413.2041)
 -->
<!-- Title: App Pages: 1 -->
<svg width="474pt" height="260pt"
 viewBox="0.00 0.00 473.59 260.00" xmlns="http://www.w3.org/2000/svg" xmlns:xlink="http://www.w3.org/1999/xlink">
<g id="graph0" class="graph" transform="scale(1 1) rotate(0) translate(4 256)">
<title>App</title>
<polygon fill="white" stroke="none" points="-4,4 -4,-256 469.586,-256 469.586,4 -4,4"/>
<!-- RoutingMiddleware -->
<g id="node1" class="node"><title>RoutingMiddleware</title>
<ellipse fill="none" stroke="black" cx="163.042" cy="-234" rx="81.7856" ry="18"/>
<text text-anchor="middle" x="163.042" y="-230.3" font-family="Times,serif" font-size="14.00">RoutingMiddleware</text>
</g>
<!-- NotFoundMiddleware -->
<g id="node2" class="node"><title>NotFoundMiddleware</title>
<ellipse fill="none" stroke="black" cx="89.0421" cy="-162" rx="89.0842" ry="18"/>
<text text-anchor="middle" x="89.0421" y="-158.3" font-family="Times,serif" font-size="14.00">NotFoundMiddleware</text>
</g>
<!-- RoutingMiddleware&#45;&gt;NotFoundMiddleware -->
<g id="edge1" class="edge"><title>RoutingMiddleware&#45;&gt;NotFoundMiddleware</title>
<path fill="none" stroke="black" d="M145.505,-216.411C136.173,-207.583 124.532,-196.572 114.248,-186.844"/>
<polygon fill="black" stroke="black" points="116.38,-184.042 106.71,-179.713 111.569,-189.127 116.38,-184.042"/>
</g>
<!-- IsCoyote -->
<g id="node3" class="node"><title>IsCoyote</title>
<ellipse fill="none" stroke="black" cx="238.042" cy="-162" rx="42.4939" ry="18"/>
<text text-anchor="middle" x="238.042" y="-158.3" font-family="Times,serif" font-size="14.00">IsCoyote</text>
</g>
<!-- RoutingMiddleware&#45;&gt;IsCoyote -->
<g id="edge2" class="edge"><title>RoutingMiddleware&#45;&gt;IsCoyote</title>
<path fill="none" stroke="black" d="M180.816,-216.411C190.646,-207.237 203.003,-195.703 213.717,-185.703"/>
<polygon fill="black" stroke="black" points="216.246,-188.131 221.168,-178.749 211.47,-183.013 216.246,-188.131"/>
</g>
<!-- NotAllowed -->
<g id="node4" class="node"><title>NotAllowed</title>
<ellipse fill="none" stroke="black" cx="166.042" cy="-90" rx="53.8905" ry="18"/>
<text text-anchor="middle" x="166.042" y="-86.3" font-family="Times,serif" font-size="14.00">NotAllowed</text>
</g>
<!-- IsCoyote&#45;&gt;NotAllowed -->
<g id="edge3" class="edge"><title>IsCoyote&#45;&gt;NotAllowed</title>
<path fill="none" stroke="black" d="M221.704,-145.116C212.356,-136.027 200.456,-124.458 190.061,-114.351"/>
<polygon fill="black" stroke="black" points="192.425,-111.768 182.815,-107.307 187.545,-116.787 192.425,-111.768"/>
</g>
<!-- ValidatePurchase -->
<g id="node5" class="node"><title>ValidatePurchase</title>
<ellipse fill="none" stroke="black" cx="310.042" cy="-90" rx="72.2875" ry="18"/>
<text text-anchor="middle" x="310.042" y="-86.3" font-family="Times,serif" font-size="14.00">ValidatePurchase</text>
</g>
<!-- IsCoyote&#45;&gt;ValidatePurchase -->
<g id="edge4" class="edge"><title>IsCoyote&#45;&gt;ValidatePurchase</title>
<path fill="none" stroke="black" d="M254.38,-145.116C263.662,-136.092 275.458,-124.623 285.801,-114.568"/>
<polygon fill="black" stroke="black" points="288.287,-117.032 293.018,-107.552 283.408,-112.013 288.287,-117.032"/>
</g>
<!-- FormValidationError -->
<g id="node6" class="node"><title>FormValidationError</title>
<ellipse fill="none" stroke="black" cx="223.042" cy="-18" rx="85.5853" ry="18"/>
<text text-anchor="middle" x="223.042" y="-14.3" font-family="Times,serif" font-size="14.00">FormValidationError</text>
</g>
<!-- ValidatePurchase&#45;&gt;FormValidationError -->
<g id="edge5" class="edge"><title>ValidatePurchase&#45;&gt;FormValidationError</title>
<path fill="none" stroke="black" d="M289.424,-72.411C278.13,-63.3238 263.959,-51.9219 251.614,-41.9888"/>
<polygon fill="black" stroke="black" points="253.799,-39.2544 243.813,-35.7125 249.411,-44.7083 253.799,-39.2544"/>
</g>
<!-- PurchaseProduct -->
<g id="node7" class="node"><title>PurchaseProduct</title>
<ellipse fill="none" stroke="black" cx="396.042" cy="-18" rx="69.5877" ry="18"/>
<text text-anchor="middle" x="396.042" y="-14.3" font-family="Times,serif" font-size="14.00">PurchaseProduct</text>
</g>
<!-- ValidatePurchase&#45;&gt;PurchaseProduct -->
<g id="edge6" class="edge"><title>ValidatePurchase&#45;&gt;PurchaseProduct</title>
<path fill="none" stroke="black" d="M330.423,-72.411C341.562,-63.3446 355.531,-51.9742 367.715,-42.0572"/>
<polygon fill="black" stroke="black" points="370.261,-44.4972 375.808,-35.4699 365.842,-39.0682 370.261,-44.4972"/>
</g>
</g>
</svg>
