<?xml version="1.0" encoding="UTF-8" standalone="no"?>
<!DOCTYPE svg PUBLIC "-//W3C//DTD SVG 1.1//EN"
 "http://www.w3.org/Graphics/SVG/1.1/DTD/svg11.dtd">
<!-- Generated by graphviz version 2.38.0 (20140413.2041)
 -->
<!-- Title: App Pages: 1 -->
<svg width="425pt" height="715pt"
 viewBox="0.00 0.00 425.23 715.00" xmlns="http://www.w3.org/2000/svg" xmlns:xlink="http://www.w3.org/1999/xlink">
<g id="graph0" class="graph" transform="scale(1 1) rotate(0) translate(4 711)">
<title>App</title>
<polygon fill="white" stroke="none" points="-4,4 -4,-711 421.227,-711 421.227,4 -4,4"/>
<!-- NegotiateRequestContent -->
<g id="node1" class="node"><title>NegotiateRequestContent</title>
<ellipse fill="none" stroke="black" cx="144.589" cy="-689" rx="100.983" ry="18"/>
<text text-anchor="middle" x="144.589" y="-685.3" font-family="Times,serif" font-size="14.00">NegotiateRequestContent</text>
</g>
<!-- ParseRequestBody -->
<g id="node2" class="node"><title>ParseRequestBody</title>
<ellipse fill="none" stroke="black" cx="144.589" cy="-616" rx="77.1866" ry="18"/>
<text text-anchor="middle" x="144.589" y="-612.3" font-family="Times,serif" font-size="14.00">ParseRequestBody</text>
</g>
<!-- NegotiateRequestContent&#45;&gt;ParseRequestBody -->
<g id="edge1" class="edge"><title>NegotiateRequestContent&#45;&gt;ParseRequestBody</title>
<path fill="none" stroke="black" d="M144.589,-670.813C144.589,-662.789 144.589,-653.047 144.589,-644.069"/>
<polygon fill="black" stroke="black" points="148.089,-644.029 144.589,-634.029 141.089,-644.029 148.089,-644.029"/>
</g>
<!-- Routing -->
<g id="node3" class="node"><title>Routing</title>
<ellipse fill="none" stroke="black" cx="144.589" cy="-543" rx="38.9931" ry="18"/>
<text text-anchor="middle" x="144.589" y="-539.3" font-family="Times,serif" font-size="14.00">Routing</text>
</g>
<!-- ParseRequestBody&#45;&gt;Routing -->
<g id="edge2" class="edge"><title>ParseRequestBody&#45;&gt;Routing</title>
<path fill="none" stroke="black" d="M144.589,-597.813C144.589,-589.789 144.589,-580.047 144.589,-571.069"/>
<polygon fill="black" stroke="black" points="148.089,-571.029 144.589,-561.029 141.089,-571.029 148.089,-571.029"/>
</g>
<!-- NotFound -->
<g id="node4" class="node"><title>NotFound</title>
<ellipse fill="none" stroke="black" cx="105.589" cy="-470" rx="46.2923" ry="18"/>
<text text-anchor="middle" x="105.589" y="-466.3" font-family="Times,serif" font-size="14.00">NotFound</text>
</g>
<!-- Routing&#45;&gt;NotFound -->
<g id="edge3" class="edge"><title>Routing&#45;&gt;NotFound</title>
<path fill="none" stroke="black" d="M135.347,-525.174C130.684,-516.686 124.928,-506.206 119.724,-496.732"/>
<polygon fill="black" stroke="black" points="122.648,-494.785 114.766,-487.705 116.512,-498.155 122.648,-494.785"/>
</g>
<!-- AcceptOnlyPost -->
<g id="node5" class="node"><title>AcceptOnlyPost</title>
<ellipse fill="none" stroke="black" cx="237.589" cy="-470" rx="68.4888" ry="18"/>
<text text-anchor="middle" x="237.589" y="-466.3" font-family="Times,serif" font-size="14.00">AcceptOnlyPost</text>
</g>
<!-- Routing&#45;&gt;AcceptOnlyPost -->
<g id="edge4" class="edge"><title>Routing&#45;&gt;AcceptOnlyPost</title>
<path fill="none" stroke="black" d="M163.859,-527.289C176.668,-517.51 193.733,-504.482 208.219,-493.422"/>
<polygon fill="black" stroke="black" points="210.574,-496.028 216.399,-487.178 206.327,-490.464 210.574,-496.028"/>
</g>
<!-- ApiThrottling -->
<g id="node6" class="node"><title>ApiThrottling</title>
<ellipse fill="none" stroke="black" cx="119.589" cy="-397" rx="59.5901" ry="18"/>
<text text-anchor="middle" x="119.589" y="-393.3" font-family="Times,serif" font-size="14.00">ApiThrottling</text>
</g>
<!-- AcceptOnlyPost&#45;&gt;ApiThrottling -->
<g id="edge5" class="edge"><title>AcceptOnlyPost&#45;&gt;ApiThrottling</title>
<path fill="none" stroke="black" d="M211.401,-453.243C194.48,-443.061 172.279,-429.703 153.947,-418.673"/>
<polygon fill="black" stroke="black" points="155.671,-415.626 145.298,-413.469 152.062,-421.624 155.671,-415.626"/>
</g>
<!-- MethodNotSupported -->
<g id="node7" class="node"><title>MethodNotSupported</title>
<ellipse fill="none" stroke="black" cx="285.589" cy="-397" rx="87.9851" ry="18"/>
<text text-anchor="middle" x="285.589" y="-393.3" font-family="Times,serif" font-size="14.00">MethodNotSupported</text>
</g>
<!-- AcceptOnlyPost&#45;&gt;MethodNotSupported -->
<g id="edge6" class="edge"><title>AcceptOnlyPost&#45;&gt;MethodNotSupported</title>
<path fill="none" stroke="black" d="M248.965,-452.174C254.738,-443.634 261.874,-433.079 268.309,-423.561"/>
<polygon fill="black" stroke="black" points="271.261,-425.443 273.962,-415.198 265.462,-421.523 271.261,-425.443"/>
</g>
<!-- InitializeSession -->
<g id="node8" class="node"><title>InitializeSession</title>
<ellipse fill="none" stroke="black" cx="119.589" cy="-324" rx="68.7879" ry="18"/>
<text text-anchor="middle" x="119.589" y="-320.3" font-family="Times,serif" font-size="14.00">InitializeSession</text>
</g>
<!-- ApiThrottling&#45;&gt;InitializeSession -->
<g id="edge7" class="edge"><title>ApiThrottling&#45;&gt;InitializeSession</title>
<path fill="none" stroke="black" d="M119.589,-378.813C119.589,-370.789 119.589,-361.047 119.589,-352.069"/>
<polygon fill="black" stroke="black" points="123.089,-352.029 119.589,-342.029 116.089,-352.029 123.089,-352.029"/>
</g>
<!-- ValidatePurchaseAsCommand -->
<g id="node9" class="node"><title>ValidatePurchaseAsCommand</title>
<ellipse fill="none" stroke="black" cx="119.589" cy="-237" rx="119.679" ry="18"/>
<text text-anchor="middle" x="119.589" y="-233.3" font-family="Times,serif" font-size="14.00">ValidatePurchaseAsCommand</text>
</g>
<!-- InitializeSession&#45;&gt;ValidatePurchaseAsCommand -->
<g id="edge8" class="edge"><title>InitializeSession&#45;&gt;ValidatePurchaseAsCommand</title>
<path fill="none" stroke="black" d="M119.589,-305.799C119.589,-294.163 119.589,-278.548 119.589,-265.237"/>
<polygon fill="black" stroke="black" points="123.089,-265.175 119.589,-255.175 116.089,-265.175 123.089,-265.175"/>
<text text-anchor="middle" x="255.089" y="-276.8" font-family="Times,serif" font-size="14.00">only this bit changes across all POST interactions</text>
</g>
<!-- FormValidationError -->
<g id="node10" class="node"><title>FormValidationError</title>
<ellipse fill="none" stroke="black" cx="107.589" cy="-164" rx="85.5853" ry="18"/>
<text text-anchor="middle" x="107.589" y="-160.3" font-family="Times,serif" font-size="14.00">FormValidationError</text>
</g>
<!-- ValidatePurchaseAsCommand&#45;&gt;FormValidationError -->
<g id="edge9" class="edge"><title>ValidatePurchaseAsCommand&#45;&gt;FormValidationError</title>
<path fill="none" stroke="black" d="M116.685,-218.813C115.328,-210.789 113.682,-201.047 112.164,-192.069"/>
<polygon fill="black" stroke="black" points="115.585,-191.306 110.468,-182.029 108.683,-192.472 115.585,-191.306"/>
</g>
<!-- FireCommand -->
<g id="node11" class="node"><title>FireCommand</title>
<ellipse fill="none" stroke="black" cx="273.589" cy="-164" rx="62.2891" ry="18"/>
<text text-anchor="middle" x="273.589" y="-160.3" font-family="Times,serif" font-size="14.00">FireCommand</text>
</g>
<!-- ValidatePurchaseAsCommand&#45;&gt;FireCommand -->
<g id="edge10" class="edge"><title>ValidatePurchaseAsCommand&#45;&gt;FireCommand</title>
<path fill="none" stroke="black" d="M154.92,-219.711C178.046,-209.049 208.349,-195.078 232.544,-183.923"/>
<polygon fill="black" stroke="black" points="234.21,-187.01 241.826,-179.644 231.279,-180.653 234.21,-187.01"/>
</g>
<!-- RespondWithAnAcceptedStatusCode -->
<g id="node12" class="node"><title>RespondWithAnAcceptedStatusCode</title>
<ellipse fill="none" stroke="black" cx="273.589" cy="-91" rx="143.775" ry="18"/>
<text text-anchor="middle" x="273.589" y="-87.3" font-family="Times,serif" font-size="14.00">RespondWithAnAcceptedStatusCode</text>
</g>
<!-- FireCommand&#45;&gt;RespondWithAnAcceptedStatusCode -->
<g id="edge11" class="edge"><title>FireCommand&#45;&gt;RespondWithAnAcceptedStatusCode</title>
<path fill="none" stroke="black" d="M273.589,-145.813C273.589,-137.789 273.589,-128.047 273.589,-119.069"/>
<polygon fill="black" stroke="black" points="277.089,-119.029 273.589,-109.029 270.089,-119.029 277.089,-119.029"/>
</g>
<!-- RedirectToParentResource -->
<g id="node13" class="node"><title>RedirectToParentResource</title>
<ellipse fill="none" stroke="black" cx="273.589" cy="-18" rx="105.082" ry="18"/>
<text text-anchor="middle" x="273.589" y="-14.3" font-family="Times,serif" font-size="14.00">RedirectToParentResource</text>
</g>
<!-- RespondWithAnAcceptedStatusCode&#45;&gt;RedirectToParentResource -->
<g id="edge12" class="edge"><title>RespondWithAnAcceptedStatusCode&#45;&gt;RedirectToParentResource</title>
<path fill="none" stroke="black" d="M273.589,-72.8129C273.589,-64.7895 273.589,-55.0475 273.589,-46.0691"/>
<polygon fill="black" stroke="black" points="277.089,-46.0288 273.589,-36.0288 270.089,-46.0289 277.089,-46.0288"/>
</g>
</g>
</svg>
